<svg width="86" height="41" viewBox="0 0 86 41" fill="none" xmlns="http://www.w3.org/2000/svg">
<path d="M12.6394 0.605469H27.3489C34.3285 0.605469 39.9941 6.27107 39.9941 13.2508V27.9602C39.9941 34.9399 34.3285 40.6055 27.3489 40.6055H12.6394C5.65975 40.6055 -0.00585938 34.9399 -0.00585938 27.9602V13.2508C-0.00585938 6.27107 5.65975 0.605469 12.6394 0.605469Z" fill="url(#paint0_linear_7756_43289)"/>
<path d="M30.8176 31.8332C26.3016 36.3493 19.6666 37.4499 14.1145 35.1409C18.047 36.2083 22.424 35.2016 25.5123 32.1133C30.1008 27.5248 30.1008 20.0829 25.5123 15.4944C20.9238 10.9059 13.482 10.9059 8.8935 15.4944C5.80512 18.5828 4.79851 22.9598 5.86583 26.8922C3.5569 21.3402 4.65751 14.7052 9.17355 10.1892C15.1505 4.21217 24.8406 4.21217 30.8176 10.1892C36.7946 16.1662 36.7946 25.8562 30.8176 31.8332ZM20.5753 31.8332C23.7243 28.6841 23.7243 23.5806 20.5753 20.4315C17.4262 17.2824 12.3226 17.2824 9.17355 20.4315C6.02446 23.5806 6.02446 28.6841 9.17355 31.8332C12.3226 34.9823 17.4262 34.9823 20.5753 31.8332Z" fill="white"/>
<path d="M55.4581 15.8211C54.9675 15.8211 54.4554 16.0492 53.9219 16.5053C53.3883 16.9529 52.9063 17.5725 52.476 18.3643C52.0027 19.2077 51.6283 20.1156 51.3529 21.0881C51.0775 22.0606 50.9398 22.9255 50.9398 23.6829C50.9398 24.2509 51.0517 24.6898 51.2755 24.9996C51.5078 25.3009 51.8349 25.4515 52.2566 25.4515C52.6783 25.4515 53.1258 25.2535 53.5991 24.8576C54.0725 24.4531 54.5415 23.8765 55.0062 23.1278C55.5226 22.2844 55.9357 21.3463 56.2455 20.3136C56.564 19.2808 56.7232 18.3686 56.7232 17.5768C56.7232 17.026 56.6113 16.5957 56.3875 16.2859C56.1638 15.9761 55.8539 15.8211 55.4581 15.8211ZM54.9804 24.7673C54.335 25.6279 53.7024 26.2691 53.0828 26.6908C52.4717 27.1125 51.8607 27.3233 51.2496 27.3233C50.432 27.3233 49.7651 27.0178 49.2487 26.4067C48.7323 25.7871 48.4741 24.9824 48.4741 23.9927C48.4741 23.0374 48.7022 22.0176 49.1583 20.9332C49.6231 19.8402 50.2685 18.7989 51.0947 17.8092C51.8779 16.8711 52.6998 16.131 53.5604 15.5888C54.4296 15.0466 55.2128 14.7755 55.9099 14.7755C56.3746 14.7755 56.7791 14.8917 57.1234 15.124C57.4762 15.3564 57.8032 15.7308 58.1045 16.2472L59.3438 14.7755H60.3507L57.3686 23.9153C57.274 24.1993 57.2137 24.3972 57.1879 24.5091C57.1621 24.6124 57.1492 24.6984 57.1492 24.7673C57.1492 24.9394 57.1793 25.0771 57.2395 25.1804C57.2998 25.275 57.3858 25.3224 57.4977 25.3224C57.7043 25.3224 57.9237 25.2148 58.1561 24.9996C58.3885 24.7759 58.7843 24.2466 59.3438 23.4118L60.1183 23.8894C59.3868 25.1115 58.7327 25.985 58.1561 26.51C57.5795 27.035 56.99 27.2975 56.3875 27.2975C55.9056 27.2975 55.5441 27.1426 55.3031 26.8328C55.0708 26.5143 54.9546 26.0281 54.9546 25.374C54.9546 25.2105 54.9546 25.09 54.9546 25.0125C54.9632 24.9265 54.9718 24.8447 54.9804 24.7673ZM67.4488 23.9112C66.5652 25.1482 65.7952 26.0276 65.1389 26.5493C64.4909 27.0626 63.8472 27.3193 63.2076 27.3193C62.7616 27.3193 62.404 27.1804 62.1347 26.9028C61.8655 26.6166 61.7308 26.2296 61.7308 25.7415C61.7308 25.3796 61.8528 24.7569 62.0969 23.8734C62.1305 23.7556 62.1558 23.663 62.1726 23.5957L65.4544 11.7306C65.4628 11.697 65.4797 11.6381 65.5049 11.5539C65.6059 11.1584 65.6564 10.8386 65.6564 10.5946C65.6564 10.2496 65.5091 9.99715 65.2146 9.83727C64.9201 9.66897 64.4573 9.58482 63.8261 9.58482L64.0155 8.76436C65.2609 8.69705 66.5021 8.54978 67.7391 8.32258C67.9999 8.27209 68.1514 8.24685 68.1935 8.24685C68.2776 8.24685 68.3407 8.27209 68.3828 8.32258C68.4333 8.37307 68.4586 8.44039 68.4586 8.52454C68.4586 8.63393 68.4207 8.81065 68.345 9.05468C68.3281 9.122 68.3113 9.1809 68.2945 9.23139L64.1922 24.3657C64.1501 24.5087 64.1165 24.6433 64.0912 24.7696C64.066 24.8874 64.0533 24.9884 64.0533 25.0725C64.0533 25.1987 64.0996 25.3165 64.1922 25.4259C64.2932 25.5353 64.3941 25.59 64.4951 25.59C64.7055 25.59 64.9748 25.4217 65.303 25.0851C65.6396 24.7401 66.1024 24.1511 66.6914 23.318L67.4488 23.9112ZM74.4668 23.9112C73.5833 25.1482 72.8133 26.0276 72.1569 26.5493C71.509 27.0626 70.8652 27.3193 70.2257 27.3193C69.7797 27.3193 69.4221 27.1804 69.1528 26.9028C68.8835 26.6166 68.7489 26.2296 68.7489 25.7415C68.7489 25.3796 68.8709 24.7569 69.1149 23.8734C69.1486 23.7556 69.1738 23.663 69.1907 23.5957L72.4725 11.7306C72.4809 11.697 72.4977 11.6381 72.523 11.5539C72.6239 11.1584 72.6744 10.8386 72.6744 10.5946C72.6744 10.2496 72.5272 9.99715 72.2327 9.83727C71.9381 9.66897 71.4753 9.58482 70.8442 9.58482L71.0335 8.76436C72.2789 8.69705 73.5201 8.54978 74.7571 8.32258C75.018 8.27209 75.1695 8.24685 75.2115 8.24685C75.2957 8.24685 75.3588 8.27209 75.4009 8.32258C75.4514 8.37307 75.4766 8.44039 75.4766 8.52454C75.4766 8.63393 75.4387 8.81065 75.363 9.05468C75.3462 9.122 75.3294 9.1809 75.3125 9.23139L71.2102 24.3657C71.1682 24.5087 71.1345 24.6433 71.1093 24.7696C71.084 24.8874 71.0714 24.9884 71.0714 25.0725C71.0714 25.1987 71.1177 25.3165 71.2102 25.4259C71.3112 25.5353 71.4122 25.59 71.5132 25.59C71.7236 25.59 71.9928 25.4217 72.321 25.0851C72.6576 24.7401 73.1204 24.1511 73.7095 23.318L74.4668 23.9112ZM79.8313 27.5591L77.5719 18.3321C77.4878 18.004 77.412 17.7726 77.3447 17.6379C77.2774 17.4949 77.2101 17.4233 77.1428 17.4233C76.9829 17.4233 76.8104 17.6 76.6252 17.9535C76.4485 18.3069 76.2676 18.8286 76.0825 19.5186L75.2242 19.3041C75.6197 17.8735 76.053 16.8175 76.5243 16.1358C77.0039 15.4458 77.5467 15.1008 78.1526 15.1008C78.4303 15.1008 78.649 15.2186 78.8089 15.4542C78.9772 15.6814 79.1792 16.2789 79.4148 17.2466L81.4344 25.3881C82.2927 24.1427 82.9491 23.0066 83.4035 21.98C83.8663 20.9534 84.0977 20.0993 84.0977 19.4177C84.0977 18.9633 83.9799 18.4037 83.7443 17.7389C83.5087 17.0657 83.3909 16.5818 83.3909 16.2873C83.3909 15.9171 83.496 15.6183 83.7064 15.3911C83.9252 15.1639 84.1987 15.0503 84.5269 15.0503C84.956 15.0503 85.3053 15.2397 85.5745 15.6183C85.8438 15.997 85.9784 16.4935 85.9784 17.1078C85.9784 18.2354 85.5872 19.6827 84.8046 21.4499C84.022 23.2086 82.9491 25.022 81.5859 26.8901C80.3741 28.5395 79.0992 29.8143 77.7613 30.7147C76.4317 31.6235 75.1568 32.0779 73.9367 32.0779C73.356 32.0779 72.8974 31.9517 72.5608 31.6993C72.2158 31.4552 72.0433 31.127 72.0433 30.7147C72.0433 30.4118 72.1569 30.1677 72.3841 29.9826C72.6029 29.7975 72.8848 29.7049 73.2298 29.7049C73.4739 29.7049 73.8525 29.8017 74.3658 29.9952C74.8792 30.1972 75.2957 30.2982 75.6155 30.2982C76.2297 30.2982 76.9114 30.0541 77.6603 29.5661C78.4176 29.078 79.1413 28.409 79.8313 27.5591Z" fill="#2D73BA"/>
<defs>
<linearGradient id="paint0_linear_7756_43289" x1="19.9932" y1="-0.281679" x2="19.9932" y2="44.5477" gradientUnits="userSpaceOnUse">
<stop stop-color="#2CBFCD"/>
<stop offset="0.19" stop-color="#44BDCB"/>
<stop offset="0.3" stop-color="#43B3C7"/>
<stop offset="0.48" stop-color="#4399BC"/>
<stop offset="0.72" stop-color="#436FAB"/>
<stop offset="0.99" stop-color="#433594"/>
<stop offset="1" stop-color="#433494"/>
</linearGradient>
</defs>
</svg>
