<svg width="44" height="45" viewBox="0 0 44 45" fill="none" xmlns="http://www.w3.org/2000/svg">
<g clip-path="url(#clip0_7756_42705)">
<rect x="-0.00195312" y="0.75" width="44" height="44" rx="22" fill="white"/>
<mask id="mask0_7756_42705" style="mask-type:alpha" maskUnits="userSpaceOnUse" x="8" y="9" width="28" height="27">
<rect x="8.79883" y="9.54999" width="26.4" height="26.4" fill="#D9D9D9"/>
</mask>
<g mask="url(#mask0_7756_42705)">
<path d="M15.4527 29.0433C16.4949 28.3353 17.535 27.78 18.5728 27.3774C19.6108 26.9748 20.7525 26.7735 21.9977 26.7735C23.2429 26.7735 24.3855 26.9748 25.4255 27.3774C26.4656 27.78 27.5067 28.3353 28.549 29.0433C29.3415 28.1802 29.9568 27.2228 30.3948 26.171C30.8326 25.119 31.0515 23.9787 31.0515 22.75C31.0515 20.2185 30.1753 18.0767 28.423 16.3246C26.6709 14.5723 24.5291 13.6962 21.9977 13.6962C19.4662 13.6962 17.3244 14.5723 15.5723 16.3246C13.82 18.0767 12.9438 20.2185 12.9438 22.75C12.9438 23.9787 13.1638 25.119 13.6038 26.171C14.0438 27.2228 14.6601 28.1802 15.4527 29.0433ZM21.9908 23.1729C21.073 23.1729 20.3015 22.858 19.6761 22.228C19.0506 21.5981 18.7378 20.8242 18.7378 19.9065C18.7378 18.9887 19.0528 18.2171 19.6827 17.5915C20.3128 16.9662 21.0868 16.6535 22.0045 16.6535C22.9223 16.6535 23.6939 16.9685 24.3192 17.5984C24.9447 18.2283 25.2575 19.0022 25.2575 19.92C25.2575 20.8377 24.9425 21.6094 24.3126 22.2349C23.6825 22.8602 22.9085 23.1729 21.9908 23.1729ZM22.0106 32.65C20.6255 32.65 19.3328 32.3929 18.1325 31.8789C16.9322 31.3648 15.8834 30.6576 14.986 29.7572C14.0886 28.8567 13.3828 27.81 12.8688 26.617C12.3547 25.4239 12.0977 24.136 12.0977 22.7533C12.0977 21.3704 12.3547 20.0814 12.8688 18.8862C13.3828 17.6911 14.09 16.6432 14.9904 15.7427C15.8909 14.8424 16.9377 14.1351 18.1306 13.6211C19.3237 13.107 20.6117 12.85 21.9944 12.85C23.3772 12.85 24.6663 13.107 25.8614 13.6211C27.0566 14.1351 28.1044 14.8424 29.0049 15.7427C29.9053 16.6432 30.6125 17.6914 31.1266 18.8871C31.6406 20.0829 31.8977 21.3663 31.8977 22.737C31.8977 24.1221 31.6406 25.4148 31.1266 26.6151C30.6125 27.8154 29.9053 28.8642 29.0049 29.7616C28.1044 30.6591 27.0563 31.3648 25.8606 31.8789C24.6647 32.3929 23.3814 32.65 22.0106 32.65ZM21.9977 31.8038C23.0342 31.8038 24.0655 31.6254 25.0914 31.2687C26.1173 30.9119 27.0414 30.3739 27.8637 29.6547C27.0414 29.0229 26.1339 28.5258 25.1412 28.1633C24.1482 27.8009 23.1004 27.6197 21.9977 27.6197C20.8949 27.6197 19.8436 27.7973 18.8437 28.1526C17.8438 28.5081 16.9468 29.0088 16.1528 29.6547C16.9609 30.3739 17.878 30.9119 18.9039 31.2687C19.9298 31.6254 20.9611 31.8038 21.9977 31.8038ZM22.0007 22.327C22.6926 22.327 23.2673 22.0972 23.7249 21.6376C24.1825 21.178 24.4113 20.6022 24.4113 19.9103C24.4113 19.2184 24.1815 18.6437 23.7219 18.1861C23.2623 17.7285 22.6865 17.4997 21.9946 17.4997C21.3027 17.4997 20.728 17.7295 20.2704 18.1891C19.8128 18.6485 19.584 19.2242 19.584 19.9161C19.584 20.608 19.8138 21.1828 20.2734 21.6404C20.733 22.0981 21.3088 22.327 22.0007 22.327Z" fill="#1C1B1F"/>
</g>
</g>
<rect x="0.498047" y="1.25" width="43" height="43" rx="21.5" stroke="#F1F1EF"/>
<defs>
<clipPath id="clip0_7756_42705">
<rect x="-0.00195312" y="0.75" width="44" height="44" rx="22" fill="white"/>
</clipPath>
</defs>
</svg>
