<svg width="49" height="49" viewBox="0 0 49 49" fill="none" xmlns="http://www.w3.org/2000/svg">
<g clip-path="url(#clip0_7756_43465)">
<rect width="48.8889" height="48.8889" rx="24.4444" fill="white"/>
<mask id="mask0_7756_43465" style="mask-type:alpha" maskUnits="userSpaceOnUse" x="12" y="12" width="25" height="25">
<rect x="12.4453" y="12.4445" width="24" height="24" fill="#D9D9D9"/>
</mask>
<g mask="url(#mask0_7756_43465)">
<path d="M19.6204 25.2777L25.0371 30.6944C25.2038 30.8611 25.2857 31.0555 25.2829 31.2777C25.28 31.5 25.1953 31.6945 25.0286 31.8612C24.8619 32.0222 24.6675 32.1041 24.4454 32.1069C24.2232 32.1098 24.0288 32.0279 23.8621 31.8612L17.0286 25.0277C16.9398 24.9389 16.8773 24.8472 16.8411 24.7527C16.8051 24.6584 16.7871 24.5556 16.7871 24.4444C16.7871 24.3333 16.8051 24.2305 16.8411 24.1362C16.8773 24.0417 16.9398 23.95 17.0286 23.8612L23.8621 17.0277C24.0231 16.8667 24.2161 16.7862 24.4411 16.7862C24.6661 16.7862 24.8619 16.8667 25.0286 17.0277C25.1953 17.1944 25.2786 17.3902 25.2786 17.6152C25.2786 17.8402 25.1953 18.036 25.0286 18.2027L19.6204 23.6112H31.6121C31.8509 23.6112 32.0495 23.6904 32.2079 23.8487C32.3662 24.007 32.4454 24.2056 32.4454 24.4444C32.4454 24.6833 32.3662 24.8819 32.2079 25.0402C32.0495 25.1985 31.8509 25.2777 31.6121 25.2777H19.6204Z" fill="#747474"/>
</g>
</g>
<rect x="0.5" y="0.5" width="47.8889" height="47.8889" rx="23.9444" stroke="#F1F1EF"/>
<defs>
<clipPath id="clip0_7756_43465">
<rect width="48.8889" height="48.8889" rx="24.4444" fill="white"/>
</clipPath>
</defs>
</svg>
