<svg width="35" height="35" viewBox="0 0 35 35" fill="none" xmlns="http://www.w3.org/2000/svg">
<path d="M10.9288 0.179688H23.6415C29.6738 0.179688 34.5703 5.07623 34.5703 11.1085V23.8212C34.5703 29.8535 29.6738 34.75 23.6415 34.75H10.9288C4.89654 34.75 0 29.8535 0 23.8212V11.1085C0 5.07623 4.89654 0.179688 10.9288 0.179688Z" fill="url(#paint0_linear_7618_81454)"/>
<path d="M26.6367 27.1682C22.7337 31.0712 16.9993 32.0224 12.2009 30.0269C15.5996 30.9493 19.3824 30.0794 22.0516 27.4102C26.0172 23.4446 26.0172 17.0129 22.0516 13.0472C18.0859 9.08161 11.6542 9.08161 7.6886 13.0472C5.01945 15.7164 4.14948 19.4992 5.07191 22.8979C3.0764 18.0995 4.02761 12.3652 7.93063 8.46213C13.0963 3.29648 21.471 3.29648 26.6367 8.46213C31.8023 13.6278 31.8023 22.0025 26.6367 27.1682ZM17.7846 27.1682C20.5063 24.4466 20.5063 20.0358 17.7846 17.3142C15.063 14.5925 10.6522 14.5925 7.93063 17.3142C5.20901 20.0358 5.20901 24.4466 7.93063 27.1682C10.6522 29.8898 15.063 29.8898 17.7846 27.1682Z" fill="white"/>
<defs>
<linearGradient id="paint0_linear_7618_81454" x1="17.2843" y1="-0.587037" x2="17.2843" y2="38.1571" gradientUnits="userSpaceOnUse">
<stop stop-color="#2CBFCD"/>
<stop offset="0.19" stop-color="#44BDCB"/>
<stop offset="0.3" stop-color="#43B3C7"/>
<stop offset="0.48" stop-color="#4399BC"/>
<stop offset="0.72" stop-color="#436FAB"/>
<stop offset="0.99" stop-color="#433594"/>
<stop offset="1" stop-color="#433494"/>
</linearGradient>
</defs>
</svg>
