<svg width="14" height="20" viewBox="0 0 14 20" fill="none" xmlns="http://www.w3.org/2000/svg">
<path d="M7.0013 11.8661C6.2458 11.8661 5.60972 11.5971 5.09305 11.0591C4.57639 10.5211 4.31805 9.86789 4.31805 9.09939V2.91614C4.31805 2.17531 4.5788 1.54564 5.1003 1.02714C5.62197 0.508639 6.2553 0.24939 7.0003 0.24939C7.74547 0.24939 8.37914 0.508639 8.9013 1.02714C9.42347 1.54564 9.68455 2.17531 9.68455 2.91614V9.09939C9.68455 9.86789 9.42622 10.5211 8.90955 11.0591C8.39289 11.5971 7.7568 11.8661 7.0013 11.8661ZM6.16805 18.4161V15.9576C4.59022 15.7633 3.22772 15.1161 2.08055 14.0161C0.93322 12.9161 0.259553 11.5633 0.0595532 9.95764C0.0262199 9.72047 0.0878864 9.51814 0.244553 9.35064C0.401053 9.18314 0.59822 9.09939 0.836053 9.09939C1.07405 9.09939 1.27222 9.18131 1.43055 9.34514C1.58889 9.50914 1.69022 9.71056 1.73455 9.94939C1.94572 11.2382 2.55389 12.2938 3.55905 13.1161C4.56405 13.9383 5.70947 14.3494 6.9953 14.3494C8.2993 14.3494 9.4513 13.9369 10.4513 13.1119C11.4513 12.2869 12.0569 11.2327 12.2681 9.94939C12.3124 9.71056 12.4147 9.50914 12.5751 9.34514C12.7354 9.18131 12.934 9.09939 13.1708 9.09939C13.4078 9.09939 13.6041 9.18314 13.7596 9.35064C13.9152 9.51814 13.9764 9.72047 13.9431 9.95764C13.7431 11.541 13.0736 12.8882 11.9346 13.9994C10.7957 15.1106 9.42905 15.7633 7.83455 15.9576V18.4161C7.83455 18.6521 7.75447 18.8501 7.5943 19.0099C7.43397 19.1696 7.2353 19.2494 6.9983 19.2494C6.76147 19.2494 6.56389 19.1696 6.40555 19.0099C6.24722 18.8501 6.16805 18.6521 6.16805 18.4161Z" fill="#73726E"/>
</svg>
