<svg width="21" height="21" viewBox="0 0 21 21" fill="none" xmlns="http://www.w3.org/2000/svg">
<path d="M16.0676 12.9521C15.8786 12.8188 15.7674 12.6396 15.7341 12.4146C15.7007 12.1896 15.7507 11.9827 15.8841 11.7938C16.0441 11.5457 16.1754 11.2806 16.2781 10.9986C16.3809 10.7166 16.4552 10.4289 16.5008 10.1356C16.5453 9.8966 16.6477 9.6966 16.8078 9.5356C16.9682 9.37443 17.1668 9.29385 17.4038 9.29385C17.6407 9.29385 17.8369 9.3776 17.9926 9.5451C18.1481 9.7126 18.2092 9.91493 18.1758 10.1521C18.1147 10.6156 18.0077 11.069 17.8551 11.5123C17.7022 11.9555 17.4925 12.3716 17.2258 12.7606C17.0925 12.9494 16.9137 13.0619 16.6893 13.0981C16.465 13.1341 16.2577 13.0854 16.0676 12.9521ZM12.5008 9.0606L9.04258 5.5856C8.89258 5.4356 8.77308 5.25768 8.68408 5.05185C8.59525 4.84585 8.55083 4.62926 8.55083 4.4021V3.1271C8.55083 2.38176 8.81158 1.74826 9.33308 1.2266C9.85475 0.704764 10.4881 0.443848 11.2331 0.443848C11.9782 0.443848 12.6119 0.704764 13.1341 1.2266C13.6564 1.74826 13.9176 2.38176 13.9176 3.1271V8.4521C13.9176 8.8271 13.7467 9.08751 13.4051 9.23335C13.0634 9.37918 12.762 9.3216 12.5008 9.0606ZM10.4008 18.6106V16.1438C8.823 15.955 7.4605 15.3106 6.31333 14.2106C5.16616 13.1106 4.49258 11.7578 4.29258 10.1521C4.25925 9.91493 4.32083 9.7126 4.47733 9.5451C4.634 9.3776 4.83125 9.29385 5.06908 9.29385C5.30691 9.29385 5.505 9.37576 5.66333 9.5396C5.82166 9.7036 5.92308 9.90501 5.96758 10.1438C6.17858 11.4327 6.7855 12.4883 7.78833 13.3106C8.79116 14.1328 9.93883 14.5438 11.2313 14.5438C11.8505 14.5438 12.4377 14.4453 12.9928 14.2481C13.5482 14.0508 14.0564 13.7771 14.5176 13.4271L15.7091 14.6188C15.2036 15.0355 14.6438 15.373 14.0298 15.6313C13.4157 15.8897 12.7616 16.0605 12.0676 16.1438V18.6106C12.0676 18.8466 11.9874 19.0445 11.8271 19.2043C11.6667 19.364 11.4682 19.4438 11.2313 19.4438C10.9943 19.4438 10.7967 19.364 10.6383 19.2043C10.48 19.0445 10.4008 18.8466 10.4008 18.6106ZM19.4008 20.5106L1.11758 2.2271C0.967578 2.0771 0.892578 1.89376 0.892578 1.6771C0.892578 1.46043 0.967578 1.2771 1.11758 1.1271C1.26758 0.977098 1.45091 0.902098 1.66758 0.902098C1.88424 0.902098 2.06758 0.977098 2.21758 1.1271L20.5008 19.4106C20.6508 19.5606 20.7258 19.7439 20.7258 19.9606C20.7258 20.1773 20.6508 20.3606 20.5008 20.5106C20.3508 20.6606 20.1675 20.7356 19.9508 20.7356C19.7342 20.7356 19.5508 20.6606 19.4008 20.5106Z" fill="#73726E"/>
</svg>
