<svg width="14" height="15" viewBox="0 0 14 15" fill="none" xmlns="http://www.w3.org/2000/svg">
<path d="M10.584 14.2507C10.1257 14.2507 9.73332 14.0876 9.40698 13.7612C9.08065 13.4347 8.91748 13.0423 8.91748 12.584V1.91748C8.91748 1.45915 9.08065 1.06673 9.40698 0.740233C9.73332 0.413899 10.1257 0.250732 10.584 0.250732H11.5007C11.9591 0.250732 12.3514 0.413899 12.6777 0.740233C13.0042 1.06673 13.1675 1.45915 13.1675 1.91748V12.584C13.1675 13.0423 13.0042 13.4347 12.6777 13.7612C12.3514 14.0876 11.9591 14.2507 11.5007 14.2507H10.584ZM2.50073 14.2507C2.0424 14.2507 1.65007 14.0876 1.32373 13.7612C0.997234 13.4347 0.833984 13.0423 0.833984 12.584V1.91748C0.833984 1.45915 0.997234 1.06673 1.32373 0.740233C1.65007 0.413899 2.0424 0.250732 2.50073 0.250732H3.41748C3.87582 0.250732 4.26815 0.413899 4.59448 0.740233C4.92082 1.06673 5.08398 1.45915 5.08398 1.91748V12.584C5.08398 13.0423 4.92082 13.4347 4.59448 13.7612C4.26815 14.0876 3.87582 14.2507 3.41748 14.2507H2.50073Z" fill="#73726E"/>
</svg>
